# xmcd CD database file
#
# Track frame offsets:
#	150
#	21443
#	41967
#
# Disc length: 841 seconds
#
# Revision: 1
# Processed by: cddbd v1.5.2PL0 Copyright (c) Steve Scherf et al.
# Submitted via: CDex 1.70beta2
#
DISCID=24034703
DTITLE=三枝夕夏 IN db - 誰もがきっと誰かのサンタクロース
DYEAR=2008
DGENRE=JPop
TTITLE0=誰もがきっと誰かのサンタクロース
TTITLE1=君が眠りにつくその前に
TTITLE2=誰もがきっと誰かのサンタクロース～Instrumental～
EXTD=YEAR: 2008
EXTT0=
EXTT1=
EXTT2=
PLAYORDER=
